<ttFont>
<head>
    <!-- Most of this table will be recalculated by the compiler -->
    <tableVersion value="1.0"/>
    <fontRevision value="1.0"/>
    <checkSumAdjustment value="0x43d1203e"/>
    <magicNumber value="0x5f0f3cf5"/>
    <flags value="00000000 00000011"/>
    <unitsPerEm value="1000"/>
    <created value="Mon Jun  2 16:14:53 2025"/>
    <modified value="Mon Jun  2 16:14:53 2025"/>
    <xMin value="0"/>
    <yMin value="-130"/>
    <xMax value="559"/>
    <yMax value="790"/>
    <macStyle value="00000000 00000000"/>
    <lowestRecPPEM value="3"/>
    <fontDirectionHint value="2"/>
    <indexToLocFormat value="0"/>
    <glyphDataFormat value="1"/>
  </head>
    <TTGlyph name="A" xMin="20" yMin="0" xMax="376" yMax="700">
      <contour>
        <pt x="20" y="0" on="1"/>
        <pt x="60" y="0" on="1"/>
        <pt x="200" y="700" on="1"/>
        <pt x="165" y="700" on="1"/>
      </contour>
      <contour>
        <pt x="75" y="164" on="1"/>
        <pt x="325" y="164" on="1"/>
        <pt x="325" y="200" on="1"/>
        <pt x="75" y="200" on="1"/>
      </contour>
      <contour>
        <pt x="332" y="0" on="1"/>
        <pt x="376" y="0" on="1"/>
        <pt x="231" y="700" on="1"/>
        <pt x="192" y="700" on="1"/>
      </contour>
      <contour>
        <pt x="175" y="661" on="1"/>
        <pt x="222" y="661" on="1"/>
        <pt x="222" y="700" on="1"/>
        <pt x="175" y="700" on="1"/>
      </contour>
    </TTGlyph>
    <TTGlyph name="B" xMin="60" yMin="0" xMax="403" yMax="700">
      <contour>
        <pt x="60" y="0" on="1"/>
        <pt x="100" y="0" on="1"/>
        <pt x="100" y="700" on="1"/>
        <pt x="60" y="700" on="1"/>
      </contour>
      <contour>
        <pt x="80" y="333" on="1"/>
        <pt x="210" y="333" on="1"/>
        <pt x="315" y="333" on="0" cubic="1"/>
        <pt x="364" y="269" on="0" cubic="1"/>
        <pt x="364" y="183" on="1"/>
        <pt x="364" y="93" on="0" cubic="1"/>
        <pt x="312" y="36" on="0" cubic="1"/>
        <pt x="200" y="36" on="1"/>
        <pt x="80" y="36" on="1"/>
        <pt x="80" y="0" on="1"/>
        <pt x="190" y="0" on="1"/>
        <pt x="343" y="0" on="0" cubic="1"/>
        <pt x="403" y="79" on="0" cubic="1"/>
        <pt x="403" y="183" on="1"/>
        <pt x="403" y="273" on="0" cubic="1"/>
        <pt x="353" y="351" on="0" cubic="1"/>
        <pt x="233" y="361" on="1"/>
        <pt x="253" y="350" on="1"/>
        <pt x="342" y="366" on="0" cubic="1"/>
        <pt x="383" y="439" on="0" cubic="1"/>
        <pt x="383" y="517" on="1"/>
        <pt x="383" y="618" on="0" cubic="1"/>
        <pt x="341" y="700" on="0" cubic="1"/>
        <pt x="180" y="700" on="1"/>
        <pt x="80" y="700" on="1"/>
        <pt x="80" y="664" on="1"/>
        <pt x="190" y="664" on="1"/>
        <pt x="310" y="664" on="0" cubic="1"/>
        <pt x="344" y="603" on="0" cubic="1"/>
        <pt x="344" y="517" on="1"/>
        <pt x="344" y="431" on="0" cubic="1"/>
        <pt x="295" y="368" on="0" cubic="1"/>
        <pt x="190" y="368" on="1"/>
        <pt x="80" y="368" on="1"/>
      </contour>
    </TTGlyph>
    <TTGlyph name="C" xMin="50" yMin="-10" xMax="449" yMax="710">
      <contour>
        <pt x="410" y="264" on="1"/>
        <pt x="397" y="85" on="0" cubic="1"/>
        <pt x="340" y="26" on="0" cubic="1"/>
        <pt x="257" y="26" on="1"/>
        <pt x="246" y="26" on="1"/>
        <pt x="152" y="26" on="0" cubic="1"/>
        <pt x="92" y="104" on="0" cubic="1"/>
        <pt x="92" y="352" on="1"/>
        <pt x="92" y="599" on="0" cubic="1"/>
        <pt x="152" y="674" on="0" cubic="1"/>
        <pt x="246" y="674" on="1"/>
        <pt x="257" y="674" on="1"/>
        <pt x="339" y="674" on="0" cubic="1"/>
        <pt x="396" y="618" on="0" cubic="1"/>
        <pt x="410" y="442" on="1"/>
        <pt x="449" y="447" on="1"/>
        <pt x="432" y="638" on="0" cubic="1"/>
        <pt x="361" y="710" on="0" cubic="1"/>
        <pt x="257" y="710" on="1"/>
        <pt x="246" y="710" on="1"/>
        <pt x="125" y="710" on="0" cubic="1"/>
        <pt x="50" y="615" on="0" cubic="1"/>
        <pt x="50" y="352" on="1"/>
        <pt x="50" y="88" on="0" cubic="1"/>
        <pt x="125" y="-10" on="0" cubic="1"/>
        <pt x="246" y="-10" on="1"/>
        <pt x="257" y="-10" on="1"/>
        <pt x="362" y="-10" on="0" cubic="1"/>
        <pt x="433" y="64" on="0" cubic="1"/>
        <pt x="449" y="258" on="1"/>
      </contour>
    </TTGlyph>
    <TTGlyph name="D" xMin="60" yMin="0" xMax="443" yMax="700">
      <contour>
        <pt x="60" y="0" on="1"/>
        <pt x="100" y="0" on="1"/>
        <pt x="100" y="700" on="1"/>
        <pt x="60" y="700" on="1"/>
      </contour>
      <contour>
        <pt x="86" y="664" on="1"/>
        <pt x="207" y="664" on="1"/>
        <pt x="320" y="664" on="0" cubic="1"/>
        <pt x="401" y="599" on="0" cubic="1"/>
        <pt x="401" y="352" on="1"/>
        <pt x="401" y="104" on="0" cubic="1"/>
        <pt x="320" y="36" on="0" cubic="1"/>
        <pt x="207" y="36" on="1"/>
        <pt x="86" y="36" on="1"/>
        <pt x="86" y="0" on="1"/>
        <pt x="207" y="0" on="1"/>
        <pt x="345" y="0" on="0" cubic="1"/>
        <pt x="443" y="88" on="0" cubic="1"/>
        <pt x="443" y="352" on="1"/>
        <pt x="443" y="615" on="0" cubic="1"/>
        <pt x="345" y="700" on="0" cubic="1"/>
        <pt x="207" y="700" on="1"/>
        <pt x="86" y="700" on="1"/>
      </contour>
    </TTGlyph>
    <TTGlyph name="E" xMin="60" yMin="0" xMax="340" yMax="700">
      <contour>
        <pt x="60" y="0" on="1"/>
        <pt x="100" y="0" on="1"/>
        <pt x="100" y="700" on="1"/>
        <pt x="60" y="700" on="1"/>
      </contour>
      <contour>
        <pt x="80" y="664" on="1"/>
        <pt x="340" y="664" on="1"/>
        <pt x="340" y="700" on="1"/>
        <pt x="80" y="700" on="1"/>
      </contour>
      <contour>
        <pt x="80" y="0" on="1"/>
        <pt x="340" y="0" on="1"/>
        <pt x="340" y="36" on="1"/>
        <pt x="80" y="36" on="1"/>
      </contour>
      <contour>
        <pt x="80" y="334" on="1"/>
        <pt x="320" y="334" on="1"/>
        <pt x="320" y="370" on="1"/>
        <pt x="80" y="370" on="1"/>
      </contour>
    </TTGlyph>
    <TTGlyph name="F" xMin="60" yMin="0" xMax="340" yMax="700">
      <contour>
        <pt x="60" y="0" on="1"/>
        <pt x="100" y="0" on="1"/>
        <pt x="100" y="700" on="1"/>
        <pt x="60" y="700" on="1"/>
      </contour>
      <contour>
        <pt x="80" y="664" on="1"/>
        <pt x="340" y="664" on="1"/>
        <pt x="340" y="700" on="1"/>
        <pt x="80" y="700" on="1"/>
      </contour>
      <contour>
        <pt x="80" y="314" on="1"/>
        <pt x="320" y="314" on="1"/>
        <pt x="320" y="350" on="1"/>
        <pt x="80" y="350" on="1"/>
      </contour>
    </TTGlyph>
    <TTGlyph name="G" xMin="50" yMin="-10" xMax="449" yMax="710">
      <contour>
        <pt x="250" y="300" on="1"/>
        <pt x="409" y="300" on="1"/>
        <pt x="409" y="216" on="1"/>
        <pt x="418" y="0" on="1"/>
        <pt x="446" y="0" on="1"/>
        <pt x="446" y="335" on="1"/>
        <pt x="250" y="335" on="1"/>
      </contour>
      <contour>
        <pt x="410" y="284" on="1"/>
        <pt x="397" y="85" on="0" cubic="1"/>
        <pt x="340" y="26" on="0" cubic="1"/>
        <pt x="257" y="26" on="1"/>
        <pt x="246" y="26" on="1"/>
        <pt x="152" y="26" on="0" cubic="1"/>
        <pt x="90" y="104" on="0" cubic="1"/>
        <pt x="90" y="352" on="1"/>
        <pt x="90" y="599" on="0" cubic="1"/>
        <pt x="161" y="674" on="0" cubic="1"/>
        <pt x="255" y="674" on="1"/>
        <pt x="266" y="674" on="1"/>
        <pt x="348" y="674" on="0" cubic="1"/>
        <pt x="396" y="618" on="0" cubic="1"/>
        <pt x="410" y="442" on="1"/>
        <pt x="449" y="447" on="1"/>
        <pt x="432" y="638" on="0" cubic="1"/>
        <pt x="370" y="710" on="0" cubic="1"/>
        <pt x="266" y="710" on="1"/>
        <pt x="255" y="710" on="1"/>
        <pt x="134" y="710" on="0" cubic="1"/>
        <pt x="50" y="615" on="0" cubic="1"/>
        <pt x="50" y="352" on="1"/>
        <pt x="50" y="88" on="0" cubic="1"/>
        <pt x="125" y="-10" on="0" cubic="1"/>
        <pt x="246" y="-10" on="1"/>
        <pt x="257" y="-10" on="1"/>
        <pt x="362" y="-10" on="0" cubic="1"/>
        <pt x="420" y="64" on="0" cubic="1"/>
        <pt x="426" y="278" on="1"/>
      </contour>
    </TTGlyph>
    <TTGlyph name="H" xMin="60" yMin="0" xMax="400" yMax="700">
      <contour>
        <pt x="60" y="0" on="1"/>
        <pt x="100" y="0" on="1"/>
        <pt x="100" y="700" on="1"/>
        <pt x="60" y="700" on="1"/>
      </contour>
      <contour>
        <pt x="80" y="334" on="1"/>
        <pt x="380" y="334" on="1"/>
        <pt x="380" y="370" on="1"/>
        <pt x="80" y="370" on="1"/>
      </contour>
      <contour>
        <pt x="360" y="0" on="1"/>
        <pt x="400" y="0" on="1"/>
        <pt x="400" y="700" on="1"/>
        <pt x="360" y="700" on="1"/>
      </contour>
    </TTGlyph>
    <TTGlyph name="I" xMin="60" yMin="0" xMax="260" yMax="700">
      <contour>
        <pt x="140" y="0" on="1"/>
        <pt x="180" y="0" on="1"/>
        <pt x="180" y="700" on="1"/>
        <pt x="140" y="700" on="1"/>
      </contour>
      <contour>
        <pt x="60" y="664" on="1"/>
        <pt x="260" y="664" on="1"/>
        <pt x="260" y="700" on="1"/>
        <pt x="60" y="700" on="1"/>
      </contour>
      <contour>
        <pt x="60" y="0" on="1"/>
        <pt x="260" y="0" on="1"/>
        <pt x="260" y="36" on="1"/>
        <pt x="60" y="36" on="1"/>
      </contour>
    </TTGlyph>
    <TTGlyph name="I.narrow" xMin="60" yMin="0" xMax="100" yMax="700">
      <contour>
        <pt x="60" y="0" on="1"/>
        <pt x="100" y="0" on="1"/>
        <pt x="100" y="700" on="1"/>
        <pt x="60" y="700" on="1"/>
      </contour>
    </TTGlyph>
    <TTGlyph name="IJ" xMin="60" yMin="-10" xMax="403" yMax="700">
      <contour>
        <pt x="100" y="320" on="1"/>
        <pt x="100" y="700" on="1"/>
        <pt x="60" y="700" on="1"/>
        <pt x="60" y="320" on="1"/>
      </contour>
      <contour>
        <pt x="232" y="-10" on="1"/>
        <pt x="338" y="-10" on="0" cubic="1"/>
        <pt x="403" y="38" on="0" cubic="1"/>
        <pt x="403" y="182" on="1"/>
        <pt x="403" y="700" on="1"/>
        <pt x="363" y="700" on="1"/>
        <pt x="363" y="182" on="1"/>
        <pt x="363" y="60" on="0" cubic="1"/>
        <pt x="313" y="26" on="0" cubic="1"/>
        <pt x="232" y="26" on="1"/>
        <pt x="151" y="26" on="0" cubic="1"/>
        <pt x="100" y="60" on="0" cubic="1"/>
        <pt x="100" y="182" on="1"/>
        <pt x="100" y="240" on="1"/>
        <pt x="60" y="240" on="1"/>
        <pt x="60" y="182" on="1"/>
        <pt x="60" y="38" on="0" cubic="1"/>
        <pt x="124" y="-10" on="0" cubic="1"/>
      </contour>
    </TTGlyph>
    <TTGlyph name="J" xMin="60" yMin="-10" xMax="403" yMax="700">
      <contour>
        <pt x="232" y="-10" on="1"/>
        <pt x="338" y="-10" on="0" cubic="1"/>
        <pt x="403" y="38" on="0" cubic="1"/>
        <pt x="403" y="182" on="1"/>
        <pt x="403" y="700" on="1"/>
        <pt x="363" y="700" on="1"/>
        <pt x="363" y="182" on="1"/>
        <pt x="363" y="60" on="0" cubic="1"/>
        <pt x="313" y="26" on="0" cubic="1"/>
        <pt x="232" y="26" on="1"/>
        <pt x="151" y="26" on="0" cubic="1"/>
        <pt x="100" y="60" on="0" cubic="1"/>
        <pt x="100" y="182" on="1"/>
        <pt x="100" y="280" on="1"/>
        <pt x="60" y="280" on="1"/>
        <pt x="60" y="182" on="1"/>
        <pt x="60" y="38" on="0" cubic="1"/>
        <pt x="124" y="-10" on="0" cubic="1"/>
      </contour>
    </TTGlyph>
    <TTGlyph name="J.narrow" xMin="60" yMin="-10" xMax="323" yMax="700">
      <contour>
        <pt x="122" y="-10" on="1"/>
        <pt x="247" y="-10" on="0" cubic="1"/>
        <pt x="323" y="48" on="0" cubic="1"/>
        <pt x="323" y="222" on="1"/>
        <pt x="323" y="700" on="1"/>
        <pt x="283" y="700" on="1"/>
        <pt x="283" y="222" on="1"/>
        <pt x="283" y="68" on="0" cubic="1"/>
        <pt x="222" y="26" on="0" cubic="1"/>
        <pt x="122" y="26" on="1"/>
        <pt x="104" y="26" on="0" cubic="1"/>
        <pt x="87" y="28" on="0" cubic="1"/>
        <pt x="72" y="32" on="1"/>
        <pt x="60" y="-3" on="1"/>
        <pt x="79" y="-8" on="0" cubic="1"/>
        <pt x="100" y="-10" on="0" cubic="1"/>
      </contour>
    </TTGlyph>
    <TTGlyph name="K" xMin="60" yMin="0" xMax="407" yMax="700">
      <contour>
        <pt x="60" y="0" on="1"/>
        <pt x="100" y="0" on="1"/>
        <pt x="100" y="700" on="1"/>
        <pt x="60" y="700" on="1"/>
      </contour>
      <contour>
        <pt x="74" y="334" on="1"/>
        <pt x="145" y="334" on="1"/>
        <pt x="358" y="0" on="1"/>
        <pt x="407" y="0" on="1"/>
        <pt x="160" y="370" on="1"/>
        <pt x="154" y="370" on="1"/>
        <pt x="74" y="370" on="1"/>
      </contour>
      <contour>
        <pt x="124" y="353" on="1"/>
        <pt x="151" y="338" on="1"/>
        <pt x="399" y="700" on="1"/>
        <pt x="353" y="700" on="1"/>
      </contour>
    </TTGlyph>
    <TTGlyph name="L" xMin="60" yMin="0" xMax="340" yMax="700">
      <contour>
        <pt x="60" y="0" on="1"/>
        <pt x="100" y="0" on="1"/>
        <pt x="100" y="700" on="1"/>
        <pt x="60" y="700" on="1"/>
      </contour>
      <contour>
        <pt x="80" y="0" on="1"/>
        <pt x="340" y="0" on="1"/>
        <pt x="340" y="36" on="1"/>
        <pt x="80" y="36" on="1"/>
      </contour>
    </TTGlyph>
    <TTGlyph name="M" xMin="60" yMin="0" xMax="470" yMax="700">
      <contour>
        <pt x="60" y="0" on="1"/>
        <pt x="100" y="0" on="1"/>
        <pt x="100" y="700" on="1"/>
        <pt x="60" y="700" on="1"/>
      </contour>
      <contour>
        <pt x="470" y="0" on="1"/>
        <pt x="470" y="700" on="1"/>
        <pt x="430" y="700" on="1"/>
        <pt x="430" y="0" on="1"/>
      </contour>
      <contour>
        <pt x="453" y="658" on="1"/>
        <pt x="430" y="700" on="1"/>
        <pt x="260" y="342" on="1"/>
        <pt x="277" y="342" on="1"/>
        <pt x="100" y="700" on="1"/>
        <pt x="78" y="651" on="1"/>
        <pt x="253" y="299" on="1"/>
        <pt x="278" y="299" on="1"/>
      </contour>
    </TTGlyph>
    <TTGlyph name="N" xMin="60" yMin="0" xMax="400" yMax="700">
      <contour>
        <pt x="60" y="0" on="1"/>
        <pt x="95" y="0" on="1"/>
        <pt x="95" y="700" on="1"/>
        <pt x="60" y="700" on="1"/>
      </contour>
      <contour>
        <pt x="76" y="646" on="1"/>
        <pt x="365" y="0" on="1"/>
        <pt x="384" y="54" on="1"/>
        <pt x="95" y="700" on="1"/>
      </contour>
      <contour>
        <pt x="365" y="0" on="1"/>
        <pt x="400" y="0" on="1"/>
        <pt x="400" y="700" on="1"/>
        <pt x="365" y="700" on="1"/>
      </contour>
    </TTGlyph>
    <TTGlyph name="O" xMin="50" yMin="-10" xMax="453" yMax="710">
      <contour>
        <pt x="246" y="-10" on="1"/>
        <pt x="257" y="-10" on="1"/>
        <pt x="377" y="-10" on="0" cubic="1"/>
        <pt x="453" y="88" on="0" cubic="1"/>
        <pt x="453" y="352" on="1"/>
        <pt x="453" y="615" on="0" cubic="1"/>
        <pt x="377" y="710" on="0" cubic="1"/>
        <pt x="257" y="710" on="1"/>
        <pt x="246" y="710" on="1"/>
        <pt x="125" y="710" on="0" cubic="1"/>
        <pt x="50" y="615" on="0" cubic="1"/>
        <pt x="50" y="352" on="1"/>
        <pt x="50" y="88" on="0" cubic="1"/>
        <pt x="125" y="-10" on="0" cubic="1"/>
      </contour>
      <contour>
        <pt x="246" y="26" on="1"/>
        <pt x="152" y="26" on="0" cubic="1"/>
        <pt x="92" y="104" on="0" cubic="1"/>
        <pt x="92" y="352" on="1"/>
        <pt x="92" y="599" on="0" cubic="1"/>
        <pt x="152" y="674" on="0" cubic="1"/>
        <pt x="246" y="674" on="1"/>
        <pt x="257" y="674" on="1"/>
        <pt x="352" y="674" on="0" cubic="1"/>
        <pt x="411" y="599" on="0" cubic="1"/>
        <pt x="411" y="352" on="1"/>
        <pt x="411" y="104" on="0" cubic="1"/>
        <pt x="352" y="26" on="0" cubic="1"/>
        <pt x="257" y="26" on="1"/>
      </contour>
    </TTGlyph>
    <TTGlyph name="P" xMin="60" yMin="0" xMax="393" yMax="700">
      <contour>
        <pt x="60" y="0" on="1"/>
        <pt x="100" y="0" on="1"/>
        <pt x="100" y="700" on="1"/>
        <pt x="60" y="700" on="1"/>
      </contour>
      <contour>
        <pt x="80" y="660" on="1"/>
        <pt x="180" y="660" on="1"/>
        <pt x="299" y="660" on="0" cubic="1"/>
        <pt x="354" y="565" on="0" cubic="1"/>
        <pt x="354" y="432" on="1"/>
        <pt x="354" y="299" on="0" cubic="1"/>
        <pt x="299" y="205" on="0" cubic="1"/>
        <pt x="180" y="205" on="1"/>
        <pt x="80" y="205" on="1"/>
        <pt x="80" y="165" on="1"/>
        <pt x="170" y="165" on="1"/>
        <pt x="330" y="165" on="0" cubic="1"/>
        <pt x="393" y="286" on="0" cubic="1"/>
        <pt x="393" y="432" on="1"/>
        <pt x="393" y="580" on="0" cubic="1"/>
        <pt x="330" y="700" on="0" cubic="1"/>
        <pt x="170" y="700" on="1"/>
        <pt x="80" y="700" on="1"/>
      </contour>
    </TTGlyph>
    <TTGlyph name="Q" xMin="243" yMin="-130" xMax="374" yMax="13">
      <contour>
        <pt x="330" y="-130" on="1"/>
        <pt x="374" y="-130" on="1"/>
        <pt x="275" y="13" on="1"/>
        <pt x="243" y="-5" on="1"/>
      </contour>
    </TTGlyph>
    <TTGlyph name="R" xMin="60" yMin="0" xMax="394" yMax="700">
      <contour>
        <pt x="350" y="0" on="1"/>
        <pt x="394" y="0" on="1"/>
        <pt x="300" y="132" on="1"/>
        <pt x="267" y="179" on="0" cubic="1"/>
        <pt x="254" y="195" on="0" cubic="1"/>
        <pt x="232" y="195" on="1"/>
        <pt x="213" y="195" on="1"/>
      </contour>
      <contour>
        <pt x="60" y="0" on="1"/>
        <pt x="100" y="0" on="1"/>
        <pt x="100" y="700" on="1"/>
        <pt x="60" y="700" on="1"/>
      </contour>
      <contour>
        <pt x="80" y="660" on="1"/>
        <pt x="180" y="660" on="1"/>
        <pt x="299" y="660" on="0" cubic="1"/>
        <pt x="354" y="565" on="0" cubic="1"/>
        <pt x="354" y="432" on="1"/>
        <pt x="354" y="299" on="0" cubic="1"/>
        <pt x="299" y="205" on="0" cubic="1"/>
        <pt x="180" y="205" on="1"/>
        <pt x="80" y="205" on="1"/>
        <pt x="80" y="165" on="1"/>
        <pt x="170" y="165" on="1"/>
        <pt x="330" y="165" on="0" cubic="1"/>
        <pt x="393" y="286" on="0" cubic="1"/>
        <pt x="393" y="432" on="1"/>
        <pt x="393" y="580" on="0" cubic="1"/>
        <pt x="330" y="700" on="0" cubic="1"/>
        <pt x="170" y="700" on="1"/>
        <pt x="80" y="700" on="1"/>
      </contour>
    </TTGlyph>
    <TTGlyph name="R.alt" xMin="60" yMin="0" xMax="394" yMax="700">
      <contour>
        <pt x="350" y="0" on="1"/>
        <pt x="394" y="0" on="1"/>
        <pt x="300" y="132" on="1"/>
        <pt x="267" y="179" on="0" cubic="1"/>
        <pt x="254" y="195" on="0" cubic="1"/>
        <pt x="232" y="195" on="1"/>
        <pt x="213" y="195" on="1"/>
      </contour>
      <contour>
        <pt x="60" y="0" on="1"/>
        <pt x="100" y="0" on="1"/>
        <pt x="100" y="700" on="1"/>
        <pt x="60" y="700" on="1"/>
      </contour>
      <contour>
        <pt x="80" y="660" on="1"/>
        <pt x="180" y="660" on="1"/>
        <pt x="299" y="660" on="0" cubic="1"/>
        <pt x="354" y="565" on="0" cubic="1"/>
        <pt x="354" y="432" on="1"/>
        <pt x="354" y="299" on="0" cubic="1"/>
        <pt x="299" y="205" on="0" cubic="1"/>
        <pt x="180" y="205" on="1"/>
        <pt x="80" y="205" on="1"/>
        <pt x="80" y="165" on="1"/>
        <pt x="170" y="165" on="1"/>
        <pt x="330" y="165" on="0" cubic="1"/>
        <pt x="393" y="286" on="0" cubic="1"/>
        <pt x="393" y="432" on="1"/>
        <pt x="393" y="580" on="0" cubic="1"/>
        <pt x="330" y="700" on="0" cubic="1"/>
        <pt x="170" y="700" on="1"/>
        <pt x="80" y="700" on="1"/>
      </contour>
    </TTGlyph>
    <TTGlyph name="S" xMin="20" yMin="-10" xMax="365" yMax="711">
      <contour>
        <pt x="349" y="157" on="1"/>
        <pt x="348" y="238" on="0" cubic="1"/>
        <pt x="299" y="293" on="0" cubic="1"/>
        <pt x="217" y="358" on="1"/>
        <pt x="167" y="398" on="1"/>
        <pt x="105" y="447" on="0" cubic="1"/>
        <pt x="84" y="494" on="0" cubic="1"/>
        <pt x="84" y="546" on="1"/>
        <pt x="84" y="629" on="0" cubic="1"/>
        <pt x="128" y="673" on="0" cubic="1"/>
        <pt x="211" y="673" on="1"/>
        <pt x="219" y="673" on="1"/>
        <pt x="268" y="673" on="0" cubic="1"/>
        <pt x="308" y="664" on="0" cubic="1"/>
        <pt x="348" y="640" on="1"/>
        <pt x="365" y="677" on="1"/>
        <pt x="328" y="696" on="0" cubic="1"/>
        <pt x="291" y="711" on="0" cubic="1"/>
        <pt x="229" y="711" on="1"/>
        <pt x="222" y="711" on="1"/>
        <pt x="104" y="711" on="0" cubic="1"/>
        <pt x="46" y="645" on="0" cubic="1"/>
        <pt x="46" y="544" on="1"/>
        <pt x="46" y="463" on="0" cubic="1"/>
        <pt x="90" y="406" on="0" cubic="1"/>
        <pt x="172" y="341" on="1"/>
        <pt x="222" y="301" on="1"/>
        <pt x="293" y="244" on="0" cubic="1"/>
        <pt x="311" y="208" on="0" cubic="1"/>
        <pt x="311" y="144" on="1"/>
        <pt x="311" y="82" on="0" cubic="1"/>
        <pt x="267" y="28" on="0" cubic="1"/>
        <pt x="184" y="28" on="1"/>
        <pt x="176" y="28" on="1"/>
        <pt x="123" y="28" on="0" cubic="1"/>
        <pt x="80" y="38" on="0" cubic="1"/>
        <pt x="37" y="64" on="1"/>
        <pt x="20" y="27" on="1"/>
        <pt x="60" y="7" on="0" cubic="1"/>
        <pt x="99" y="-10" on="0" cubic="1"/>
        <pt x="166" y="-10" on="1"/>
        <pt x="173" y="-10" on="1"/>
        <pt x="291" y="-10" on="0" cubic="1"/>
        <pt x="350" y="62" on="0" cubic="1"/>
      </contour>
    </TTGlyph>
    <TTGlyph name="S.closed" xMin="40" yMin="-10" xMax="359" yMax="711">
      <contour>
        <pt x="358" y="157" on="1"/>
        <pt x="357" y="238" on="0" cubic="1"/>
        <pt x="311" y="300" on="0" cubic="1"/>
        <pt x="226" y="358" on="1"/>
        <pt x="168" y="398" on="1"/>
        <pt x="102" y="443" on="0" cubic="1"/>
        <pt x="85" y="494" on="0" cubic="1"/>
        <pt x="85" y="557" on="1"/>
        <pt x="85" y="619" on="0" cubic="1"/>
        <pt x="117" y="673" on="0" cubic="1"/>
        <pt x="196" y="673" on="1"/>
        <pt x="201" y="673" on="1"/>
        <pt x="297" y="673" on="0" cubic="1"/>
        <pt x="316" y="614" on="0" cubic="1"/>
        <pt x="316" y="479" on="1"/>
        <pt x="355" y="479" on="1"/>
        <pt x="355" y="653" on="0" cubic="1"/>
        <pt x="316" y="711" on="0" cubic="1"/>
        <pt x="202" y="711" on="1"/>
        <pt x="195" y="711" on="1"/>
        <pt x="90" y="711" on="0" cubic="1"/>
        <pt x="46" y="639" on="0" cubic="1"/>
        <pt x="47" y="544" on="1"/>
        <pt x="48" y="463" on="0" cubic="1"/>
        <pt x="88" y="399" on="0" cubic="1"/>
        <pt x="173" y="341" on="1"/>
        <pt x="231" y="301" on="1"/>
        <pt x="305" y="250" on="0" cubic="1"/>
        <pt x="320" y="207" on="0" cubic="1"/>
        <pt x="320" y="144" on="1"/>
        <pt x="320" y="82" on="0" cubic="1"/>
        <pt x="283" y="28" on="0" cubic="1"/>
        <pt x="212" y="28" on="1"/>
        <pt x="204" y="28" on="1"/>
        <pt x="100" y="28" on="0" cubic="1"/>
        <pt x="80" y="94" on="0" cubic="1"/>
        <pt x="80" y="222" on="1"/>
        <pt x="40" y="222" on="1"/>
        <pt x="40" y="36" on="0" cubic="1"/>
        <pt x="102" y="-10" on="0" cubic="1"/>
        <pt x="194" y="-10" on="1"/>
        <pt x="201" y="-10" on="1"/>
        <pt x="306" y="-10" on="0" cubic="1"/>
        <pt x="359" y="62" on="0" cubic="1"/>
      </contour>
    </TTGlyph>
    <TTGlyph name="T" xMin="30" yMin="0" xMax="410" yMax="700">
      <contour>
        <pt x="200" y="0" on="1"/>
        <pt x="240" y="0" on="1"/>
        <pt x="240" y="700" on="1"/>
        <pt x="200" y="700" on="1"/>
      </contour>
      <contour>
        <pt x="30" y="664" on="1"/>
        <pt x="410" y="664" on="1"/>
        <pt x="410" y="700" on="1"/>
        <pt x="30" y="700" on="1"/>
      </contour>
    </TTGlyph>
    <TTGlyph name="U" xMin="60" yMin="-10" xMax="403" yMax="700">
      <contour>
        <pt x="232" y="-10" on="1"/>
        <pt x="338" y="-10" on="0" cubic="1"/>
        <pt x="403" y="38" on="0" cubic="1"/>
        <pt x="403" y="182" on="1"/>
        <pt x="403" y="700" on="1"/>
        <pt x="363" y="700" on="1"/>
        <pt x="363" y="182" on="1"/>
        <pt x="363" y="60" on="0" cubic="1"/>
        <pt x="313" y="26" on="0" cubic="1"/>
        <pt x="232" y="26" on="1"/>
        <pt x="151" y="26" on="0" cubic="1"/>
        <pt x="100" y="60" on="0" cubic="1"/>
        <pt x="100" y="182" on="1"/>
        <pt x="100" y="700" on="1"/>
        <pt x="60" y="700" on="1"/>
        <pt x="60" y="182" on="1"/>
        <pt x="60" y="38" on="0" cubic="1"/>
        <pt x="124" y="-10" on="0" cubic="1"/>
      </contour>
    </TTGlyph>
    <TTGlyph name="V" xMin="20" yMin="0" xMax="378" yMax="700">
      <contour>
        <pt x="378" y="700" on="1"/>
        <pt x="337" y="700" on="1"/>
        <pt x="207" y="0" on="1"/>
        <pt x="243" y="0" on="1"/>
      </contour>
      <contour>
        <pt x="65" y="700" on="1"/>
        <pt x="20" y="700" on="1"/>
        <pt x="155" y="0" on="1"/>
        <pt x="195" y="0" on="1"/>
      </contour>
      <contour>
        <pt x="235" y="39" on="1"/>
        <pt x="165" y="39" on="1"/>
        <pt x="165" y="0" on="1"/>
        <pt x="235" y="0" on="1"/>
      </contour>
    </TTGlyph>
    <TTGlyph name="W" xMin="22" yMin="0" xMax="500" yMax="700">
      <contour>
        <pt x="500" y="700" on="1"/>
        <pt x="458" y="700" on="1"/>
        <pt x="371" y="62" on="1"/>
        <pt x="377" y="62" on="1"/>
        <pt x="283" y="700" on="1"/>
        <pt x="245" y="700" on="1"/>
        <pt x="150" y="62" on="1"/>
        <pt x="158" y="62" on="1"/>
        <pt x="65" y="700" on="1"/>
        <pt x="22" y="700" on="1"/>
        <pt x="129" y="0" on="1"/>
        <pt x="174" y="0" on="1"/>
        <pt x="263" y="639" on="1"/>
        <pt x="253" y="639" on="1"/>
        <pt x="348" y="0" on="1"/>
        <pt x="393" y="0" on="1"/>
      </contour>
    </TTGlyph>
    <TTGlyph name="X" xMin="20" yMin="0" xMax="382" yMax="700">
      <contour>
        <pt x="337" y="0" on="1"/>
        <pt x="382" y="0" on="1"/>
        <pt x="213" y="364" on="1"/>
        <pt x="72" y="700" on="1"/>
        <pt x="27" y="700" on="1"/>
        <pt x="187" y="337" on="1"/>
      </contour>
      <contour>
        <pt x="20" y="0" on="1"/>
        <pt x="60" y="0" on="1"/>
        <pt x="202" y="332" on="1"/>
        <pt x="215" y="336" on="1"/>
        <pt x="370" y="700" on="1"/>
        <pt x="330" y="700" on="1"/>
        <pt x="200" y="363" on="1"/>
        <pt x="184" y="357" on="1"/>
      </contour>
    </TTGlyph>
    <TTGlyph name="Y" xMin="20" yMin="0" xMax="400" yMax="700">
      <contour>
        <pt x="400" y="700" on="1"/>
        <pt x="359" y="700" on="1"/>
        <pt x="205" y="210" on="1"/>
        <pt x="230" y="210" on="1"/>
      </contour>
      <contour>
        <pt x="67" y="700" on="1"/>
        <pt x="20" y="700" on="1"/>
        <pt x="190" y="210" on="1"/>
        <pt x="228" y="210" on="1"/>
      </contour>
      <contour>
        <pt x="230" y="254" on="1"/>
        <pt x="190" y="254" on="1"/>
        <pt x="190" y="0" on="1"/>
        <pt x="230" y="0" on="1"/>
      </contour>
    </TTGlyph>
    <TTGlyph name="Z" xMin="60" yMin="0" xMax="380" yMax="700">
      <contour>
        <pt x="60" y="36" on="1"/>
        <pt x="95" y="26" on="1"/>
        <pt x="380" y="664" on="1"/>
        <pt x="345" y="674" on="1"/>
      </contour>
      <contour>
        <pt x="60" y="664" on="1"/>
        <pt x="380" y="664" on="1"/>
        <pt x="380" y="700" on="1"/>
        <pt x="60" y="700" on="1"/>
      </contour>
      <contour>
        <pt x="60" y="0" on="1"/>
        <pt x="380" y="0" on="1"/>
        <pt x="380" y="36" on="1"/>
        <pt x="60" y="36" on="1"/>
      </contour>
    </TTGlyph>
    <TTGlyph name="acute" xMin="50" yMin="730" xMax="200" yMax="770">
      <contour>
        <pt x="50" y="730" on="1"/>
        <pt x="200" y="738" on="1"/>
        <pt x="200" y="770" on="1"/>
        <pt x="50" y="760" on="1"/>
      </contour>
    </TTGlyph>
    <TTGlyph name="arrowdown" xMin="100" yMin="140" xMax="202" yMax="540">
      <contour>
        <pt x="137" y="271" on="1"/>
        <pt x="166" y="271" on="1"/>
        <pt x="172" y="540" on="1"/>
        <pt x="131" y="540" on="1"/>
      </contour>
      <contour>
        <pt x="100" y="330" on="1"/>
        <pt x="152" y="140" on="1"/>
        <pt x="202" y="329" on="1"/>
      </contour>
    </TTGlyph>
    <TTGlyph name="arrowleft" xMin="5" yMin="306" xMax="559" yMax="408">
      <contour>
        <pt x="136" y="371" on="1"/>
        <pt x="136" y="342" on="1"/>
        <pt x="559" y="336" on="1"/>
        <pt x="559" y="377" on="1"/>
      </contour>
      <contour>
        <pt x="195" y="408" on="1"/>
        <pt x="5" y="356" on="1"/>
        <pt x="194" y="306" on="1"/>
      </contour>
    </TTGlyph>
    <TTGlyph name="arrowright" xMin="10" yMin="308" xMax="439" yMax="410">
      <contour>
        <pt x="308" y="345" on="1"/>
        <pt x="308" y="374" on="1"/>
        <pt x="10" y="380" on="1"/>
        <pt x="10" y="339" on="1"/>
      </contour>
      <contour>
        <pt x="249" y="308" on="1"/>
        <pt x="439" y="360" on="1"/>
        <pt x="250" y="410" on="1"/>
      </contour>
    </TTGlyph>
    <TTGlyph name="arrowup" xMin="100" yMin="140" xMax="202" yMax="540">
      <contour>
        <pt x="165" y="409" on="1"/>
        <pt x="136" y="409" on="1"/>
        <pt x="130" y="140" on="1"/>
        <pt x="171" y="140" on="1"/>
      </contour>
      <contour>
        <pt x="202" y="350" on="1"/>
        <pt x="150" y="540" on="1"/>
        <pt x="100" y="351" on="1"/>
      </contour>
    </TTGlyph>
    <TTGlyph name="comma" xMin="60" yMin="-95" xMax="111" yMax="120">
      <contour>
        <pt x="111" y="0" on="1"/>
        <pt x="111" y="120" on="1"/>
        <pt x="61" y="120" on="1"/>
        <pt x="61" y="0" on="1"/>
        <pt x="93" y="-8" on="1"/>
        <pt x="82" y="12" on="1"/>
        <pt x="60" y="-93" on="1"/>
        <pt x="72" y="-95" on="1"/>
      </contour>
    </TTGlyph>
    <TTGlyph name="dot" xMin="50" yMin="730" xMax="90" yMax="790">
      <contour>
        <pt x="50" y="730" on="1"/>
        <pt x="90" y="730" on="1"/>
        <pt x="90" y="790" on="1"/>
        <pt x="50" y="790" on="1"/>
      </contour>
    </TTGlyph>
    <TTGlyph name="nlitest" xMin="0" yMin="0" xMax="50" yMax="750">
      <contour>
        <pt x="0" y="50" on="1"/>
        <pt x="0" y="0" on="1"/>
        <pt x="50" y="0" on="1"/>
        <pt x="0" y="750" on="1"/>
      </contour>
    </TTGlyph>
    <TTGlyph name="period" xMin="60" yMin="0" xMax="110" yMax="120">
      <contour>
        <pt x="60" y="0" on="1"/>
        <pt x="110" y="0" on="1"/>
        <pt x="110" y="120" on="1"/>
        <pt x="60" y="120" on="1"/>
      </contour>
    </TTGlyph>
    <TTGlyph name="varcotest2" xMin="70" yMin="278" xMax="379" yMax="664">
      <contour>
        <pt x="70" y="278" on="1"/>
        <pt x="309" y="278" on="1"/>
        <pt x="309" y="380" on="1"/>
        <pt x="379" y="380" on="1"/>
        <pt x="379" y="664" on="1"/>
        <pt x="204" y="664" on="1"/>
        <pt x="204" y="588" on="1"/>
        <pt x="70" y="588" on="1"/>
      </contour>
    </TTGlyph>
</ttFont>
